<?xml version="1.0" encoding="utf-8"?>
<!-- Generator: Adobe Illustrator 23.0.3, SVG Export Plug-In . SVG Version: 6.00 Build 0)  -->
<svg version="1.1" id="Layer_1" xmlns="http://www.w3.org/2000/svg" xmlns:xlink="http://www.w3.org/1999/xlink" x="0px" y="0px"
	 viewBox="0 0 314 33" style="enable-background:new 0 0 314 33;" xml:space="preserve">
<style type="text/css">
	.st0{fill:#0B1529;}
</style>
<g>
	<path class="st0" d="M60.6,20.1h15.3v-6.4H60.6V7.1H78V0.8H53.5v32.5h24.7v-6.4H60.6V20.1z M7.4,0.8H0.2v32.5h23.3v-6.5H7.4V0.8z
		 M296.1,26.9v-6.8h15.3v-6.4h-15.3V7.1h17.4V0.8H289v32.5h24.7v-6.4H296.1z M120.3,0.6l-13.9,32.7h7.3l0.1-0.1l0.1,0.1l15.8-9
		l0.7,1.8l3,7.3h7.5L126.9,0.5C126.9,0.5,120.3,0.5,120.3,0.6z M117.8,23.2l1.4-3.5l4.3-10.5l3.6,8.7L117.8,23.2z M250,19.4
		c0,5.1-2.6,7.8-7,7.8c-4.4,0-7-2.7-7-8V0.8h-7.1v18.5c0,9.6,5.3,14.4,14.1,14.4c8.7,0,14.2-4.8,14.2-14.7V0.8H250L250,19.4
		L250,19.4z M183.8,20.7h7.2v4.6c-1.8,1.3-4.1,2-6.7,2c-5.8,0-9.8-4.4-9.8-10.3v-0.1c0-5.5,4.1-10.1,9.3-10.1c3.8,0,6,1.2,8.5,3.3
		l4.5-5.4c-3.4-2.9-6.9-4.5-12.8-4.5c-9.8,0-17,7.6-17,16.8v0.1c0,9.6,6.9,16.7,17.1,16.7c5.9,0,10.5-2.3,13.9-5.1V14.6h-14.1
		L183.8,20.7L183.8,20.7z"/>
</g>
</svg>
