<?xml version="1.0" encoding="utf-8"?>
<!-- Generator: Adobe Illustrator 23.0.3, SVG Export Plug-In . SVG Version: 6.00 Build 0)  -->
<svg version="1.1" id="Layer_1" xmlns="http://www.w3.org/2000/svg" xmlns:xlink="http://www.w3.org/1999/xlink" x="0px" y="0px"
	 viewBox="0 0 326.8 377.9" style="enable-background:new 0 0 326.8 377.9;" xml:space="preserve">
<style type="text/css">
	.st0{fill:#0B1529;}
</style>
<g>
	<path class="st0" d="M163.4,376.6l-162.8-94V94.7l162.8-94l162.8,94v187.9L163.4,376.6z M12.7,275.7l150.8,87l150.8-87V101.6
		l-150.8-87l-150.8,87V275.7z"/>
</g>
<g>
	<line class="st0" x1="6.7" y1="188.6" x2="241.8" y2="324.4"/>
	<rect x="120.2" y="120.8" transform="matrix(0.5 -0.866 0.866 0.5 -160.0374 235.8539)" class="st0" width="8" height="271.5"/>
</g>
<g>
	<line class="st0" x1="85.1" y1="52.9" x2="241.8" y2="143.4"/>
	<rect x="159.4" y="7.7" transform="matrix(0.5 -0.866 0.866 0.5 -3.3261 190.6227)" class="st0" width="8" height="181"/>
</g>
<g>
	<line class="st0" x1="319.3" y1="98.7" x2="9" y2="277.8"/>
	<rect x="-15" y="184.3" transform="matrix(0.866 -0.5 0.5 0.866 -72.1456 107.2806)" class="st0" width="358.3" height="8"/>
</g>
<g>
	<line class="st0" x1="241.8" y1="52.9" x2="6.7" y2="188.6"/>
	<rect x="-11.5" y="116.8" transform="matrix(0.866 -0.5 0.5 0.866 -43.7421 78.3021)" class="st0" width="271.5" height="8"/>
</g>
</svg>
