<?xml version="1.0" encoding="utf-8"?>
<svg version="1.2" baseProfile="tiny" id="Layer_1" xmlns="http://www.w3.org/2000/svg" xmlns:xlink="http://www.w3.org/1999/xlink"
	 x="0px" y="0px" viewBox="0 0 326.76 377.92" xml:space="preserve">
<g>
	<path fill="#FFFAF1" d="M163.43,376.58L0.68,282.62V94.68L163.43,0.72l162.75,93.97v187.93L163.43,376.58z M12.68,275.69
		l150.75,87.04l150.75-87.04V101.61L163.43,14.57L12.68,101.61V275.69z"/>
</g>
<g>
	<line fill="#FFFAF1" x1="6.68" y1="188.65" x2="241.81" y2="324.4"/>

		<rect x="120.25" y="120.77" transform="matrix(0.5 -0.866 0.866 0.5 -160.0359 235.8634)" fill="#FFFAF1" width="8" height="271.51"/>
</g>
<g>
	<line fill="#FFFAF1" x1="85.06" y1="52.94" x2="241.81" y2="143.44"/>
	<rect x="159.43" y="7.68" transform="matrix(0.5 -0.866 0.866 0.5 -3.3154 190.6322)" fill="#FFFAF1" width="8" height="181"/>
</g>
<g>
	<line fill="#FFFAF1" x1="319.26" y1="98.68" x2="8.97" y2="277.83"/>

		<rect x="-15.03" y="184.26" transform="matrix(0.866 -0.5 0.5 0.866 -72.1431 107.2867)" fill="#FFFAF1" width="358.29" height="8"/>
</g>
<g>
	<line fill="#FFFAF1" x1="241.81" y1="52.9" x2="6.68" y2="188.65"/>

		<rect x="-11.51" y="116.77" transform="matrix(0.866 -0.5 0.5 0.866 -43.7422 78.3086)" fill="#FFFAF1" width="271.51" height="8"/>
</g>
</svg>
