<?xml version="1.0" encoding="utf-8"?>
<svg version="1.1" id="Layer_1" xmlns="http://www.w3.org/2000/svg" xmlns:xlink="http://www.w3.org/1999/xlink" x="0px" y="0px"
	 viewBox="0 0 314 33" style="enable-background:new 0 0 314 33;" xml:space="preserve">
<style type="text/css">
	.st0{fill:#FFFAF0;}
</style>
<g>
	<path class="st0" d="M60.63,20.07h15.31v-6.36H60.63V7.14h17.4V0.78h-24.5v32.47h24.73v-6.36H60.63V20.07z M7.37,0.78H0.22v32.47
		h23.33v-6.49H7.37V0.78z M296.1,26.89v-6.82h15.31v-6.36H296.1V7.14h17.4V0.78H289v32.47h24.73v-6.36H296.1z M120.35,0.55
		l-13.92,32.7h7.28l0.05-0.14l0.08,0.14l15.85-9.05l0.72,1.77l2.97,7.28h7.47l-13.92-32.7H120.35z M117.81,23.18l1.42-3.52
		l4.32-10.53l3.58,8.73L117.81,23.18z M249.98,19.38c0,5.15-2.64,7.79-7,7.79c-4.37,0-7.01-2.74-7.01-8.02V0.78h-7.14v18.55
		c0,9.56,5.33,14.42,14.06,14.42c8.72,0,14.24-4.82,14.24-14.66V0.78h-7.14V19.38z M183.77,20.72h7.19v4.63
		c-1.81,1.3-4.13,1.95-6.73,1.95c-5.75,0-9.83-4.36-9.83-10.3v-0.1c0-5.52,4.13-10.11,9.33-10.11c3.76,0,5.98,1.21,8.49,3.3
		l4.5-5.43c-3.38-2.88-6.91-4.46-12.75-4.46c-9.84,0-17.02,7.56-17.02,16.8v0.09c0,9.6,6.95,16.7,17.07,16.7
		c5.94,0,10.53-2.32,13.87-5.14v-14.1h-14.1V20.72z"/>
</g>
</svg>
